<svg xmlns="http://www.w3.org/2000/svg" width="1280" height="720" viewBox="0 0 1280 720"><title>First light, an original fictional landscape concept</title><defs><linearGradient id="sky" x2="0" y2="1"><stop stop-color="#142c3a"/><stop offset=".55" stop-color="#839592"/><stop offset="1" stop-color="#efbb7d"/></linearGradient><radialGradient id="sun"><stop stop-color="#ffeeb2" stop-opacity=".5"/><stop offset="1" stop-color="#ffeeb2" stop-opacity="0"/></radialGradient></defs><path fill="url(#sky)" d="M0 0H1280V720H0Z"/><circle cx="916" cy="258" r="350" fill="url(#sun)"/><circle cx="916" cy="258" r="47" fill="#ffefb8"/><path fill="#8b9c96" d="M0 363 155 331 249 278 375 344 470 294 620 383 749 358 886 319 963 295 1105 360 1280 316V720H0Z"/><path fill="#527f82" d="M0 439 101 391 212 423 344 366 477 447 612 433 718 485 871 411 989 379 1121 423 1280 389V720H0Z"/><path fill="#2c626a" d="M0 487 159 464 280 524 390 476 548 558 718 575 851 502 984 477 1128 517 1280 471V720H0Z"/><path fill="#12373f" d="M0 585 94 545 229 568 339 646 528 630 690 683 850 621 1013 584 1139 539 1280 586V720H0Z"/><path stroke="#edcd97" stroke-opacity=".6" fill="none" d="M715 487C684 521 769 539 713 563S681 610 629 641"/><text x="86" y="124" fill="#fff0d4" font-family="sans-serif" font-size="14" letter-spacing="7">山间 · 光影习作</text><text x="86" y="206" fill="#fff0d4" font-family="serif" font-size="61" letter-spacing="7">再往前一点</text><text x="86" y="256" fill="#fff0d4" font-family="sans-serif" font-size="20" letter-spacing="4">光，就在山的那边。</text><text x="86" y="674" fill="#c6d2cb" font-family="sans-serif" font-size="12" letter-spacing="3">原创虚构地貌 · 无声视觉概念</text></svg>