<svg xmlns="http://www.w3.org/2000/svg" width="520" height="470" viewBox="0 0 520 470" role="img"><title>可拆分透明薄膜与纹理原语</title><defs><linearGradient id="mem"><stop stop-color="#acdcb0" stop-opacity=".28"/><stop offset="1" stop-color="#aed5a7" stop-opacity=".02"/></linearGradient></defs><path d="M80 206C124 73 333 50 444 152S390 403 237 418 33 347 80 206Z" fill="url(#mem)" stroke="#c7e8ad" stroke-opacity=".8" stroke-width="2"/><path d="M110 153.0Q110 270 132 363.0" fill="none" stroke="#abd7bb" stroke-opacity=".2"/><path d="M128 136.2Q129 270 149 370.8" fill="none" stroke="#abd7bb" stroke-opacity=".2"/><path d="M146 134.8Q148 270 166 387.1" fill="none" stroke="#abd7bb" stroke-opacity=".2"/><path d="M164 150.2Q167 270 183 396.8" fill="none" stroke="#abd7bb" stroke-opacity=".2"/><path d="M182 168.1Q186 270 200 391.1" fill="none" stroke="#abd7bb" stroke-opacity=".2"/><path d="M200 172.2Q205 270 217 375.2" fill="none" stroke="#abd7bb" stroke-opacity=".2"/><path d="M218 158.6Q224 270 234 363.7" fill="none" stroke="#abd7bb" stroke-opacity=".2"/><path d="M236 139.9Q243 270 251 367.2" fill="none" stroke="#abd7bb" stroke-opacity=".2"/><path d="M254 133.2Q262 270 268 382.5" fill="none" stroke="#abd7bb" stroke-opacity=".2"/><path d="M272 144.8Q281 270 285 395.5" fill="none" stroke="#abd7bb" stroke-opacity=".2"/><path d="M290 163.9Q300 270 302 394.3" fill="none" stroke="#abd7bb" stroke-opacity=".2"/><path d="M308 173.0Q319 270 319 379.9" fill="none" stroke="#abd7bb" stroke-opacity=".2"/><path d="M326 163.7Q338 270 336 365.7" fill="none" stroke="#abd7bb" stroke-opacity=".2"/><path d="M344 144.6Q357 270 353 364.6" fill="none" stroke="#abd7bb" stroke-opacity=".2"/></svg>
