<svg xmlns="http://www.w3.org/2000/svg" width="420" height="320" viewBox="0 0 420 320" role="img"><title>潮线版画，原创地貌示意</title><rect width="420" height="320" fill="#b0beb3"/><path d="M-40 35Q75 -35 210 53T470 25" fill="none" stroke="#344e4e" stroke-width="22"/><path d="M-40 62Q75 -8 210 80T470 52" fill="none" stroke="#718e83" stroke-width="12"/><path d="M-40 89Q75 19 210 107T470 79" fill="none" stroke="#e0d5b4" stroke-width="12"/><path d="M-40 116Q75 46 210 134T470 106" fill="none" stroke="#344e4e" stroke-width="22"/><path d="M-40 143Q75 73 210 161T470 133" fill="none" stroke="#718e83" stroke-width="12"/><path d="M-40 170Q75 100 210 188T470 160" fill="none" stroke="#e0d5b4" stroke-width="12"/><path d="M-40 197Q75 127 210 215T470 187" fill="none" stroke="#344e4e" stroke-width="22"/><path d="M-40 224Q75 154 210 242T470 214" fill="none" stroke="#718e83" stroke-width="12"/><path d="M-40 251Q75 181 210 269T470 241" fill="none" stroke="#e0d5b4" stroke-width="12"/><path d="M-40 278Q75 208 210 296T470 268" fill="none" stroke="#344e4e" stroke-width="22"/><path d="M-40 305Q75 235 210 323T470 295" fill="none" stroke="#718e83" stroke-width="12"/><path d="M-40 332Q75 262 210 350T470 322" fill="none" stroke="#e0d5b4" stroke-width="12"/><path d="M-40 359Q75 289 210 377T470 349" fill="none" stroke="#344e4e" stroke-width="22"/></svg>
